<?xml version="1.0" standalone="no"?>
<!DOCTYPE svg PUBLIC "-//W3C//DTD SVG 20010904//EN"
 "http://www.w3.org/TR/2001/REC-SVG-20010904/DTD/svg10.dtd">
<svg version="1.0" xmlns="http://www.w3.org/2000/svg"
 width="655.000000pt" height="429.000000pt" viewBox="0 0 655.000000 429.000000"
 preserveAspectRatio="xMidYMid meet">

<g transform="translate(0.000000,429.000000) scale(0.100000,-0.100000)"
fill="#000000" stroke="none">
<path d="M1402 2233 l1 -48 4 43 4 42 249 0 c228 0 249 -1 253 -17 4 -14 5
-12 6 5 l1 22 -260 0 -260 0 2 -47z"/>
<path d="M3314 2246 c-15 -12 -17 -18 -8 -33 17 -27 58 -24 62 6 2 13 -2 28
-10 32 -18 12 -21 11 -44 -5z"/>
<path d="M1548 2243 c61 -2 163 -2 225 0 61 1 11 3 -113 3 -124 0 -174 -2
-112 -3z"/>
<path d="M2990 2085 l0 -165 35 0 35 0 0 165 0 165 -35 0 -35 0 0 -165z"/>
<path d="M4680 2085 l0 -165 29 0 28 0 5 79 c5 86 17 111 54 111 33 0 44 -28
44 -114 l0 -76 36 0 37 0 -5 95 c-5 82 -9 99 -28 120 -18 19 -34 25 -66 25
-24 0 -46 -4 -49 -10 -15 -24 -25 -6 -25 45 0 54 0 55 -30 55 l-30 0 0 -165z"/>
<path d="M3140 2200 c0 -18 -6 -33 -15 -36 -8 -4 -15 -16 -15 -29 0 -13 7 -25
15 -29 12 -4 15 -23 15 -84 0 -92 13 -112 73 -112 34 0 37 2 37 30 0 23 -4 30
-20 30 -24 0 -33 29 -28 91 2 37 7 45 26 47 34 5 31 52 -3 52 -22 0 -25 4 -25
35 0 32 -2 35 -30 35 -27 0 -30 -3 -30 -30z"/>
<path d="M5310 2200 c0 -18 -6 -33 -15 -36 -8 -4 -15 -16 -15 -29 0 -13 7 -25
15 -29 12 -4 15 -24 15 -87 0 -94 10 -108 73 -109 34 0 37 2 37 29 0 23 -5 30
-22 33 -21 3 -23 9 -26 71 -3 66 -3 67 23 67 20 0 25 5 25 25 0 20 -5 25 -25
25 -22 0 -25 4 -25 35 0 32 -2 35 -30 35 -27 0 -30 -3 -30 -30z"/>
<path d="M1903 2165 c0 -27 2 -38 4 -22 2 15 2 37 0 50 -2 12 -4 0 -4 -28z"/>
<path d="M1873 2155 c0 -22 2 -30 4 -17 2 12 2 30 0 40 -3 9 -5 -1 -4 -23z"/>
<path d="M1413 2095 c0 -44 2 -61 4 -37 2 23 2 59 0 80 -2 20 -4 1 -4 -43z"/>
<path d="M1442 2140 c0 -14 2 -19 5 -12 2 6 2 18 0 25 -3 6 -5 1 -5 -13z"/>
<path d="M2190 2040 l0 -120 30 0 c30 0 30 0 30 58 0 72 16 104 58 117 26 7
32 14 32 37 0 22 -5 28 -23 28 -12 0 -33 -7 -45 -16 -20 -14 -22 -14 -22 0 0
11 -10 16 -30 16 l-30 0 0 -120z"/>
<path d="M2423 2145 c-43 -18 -67 -66 -60 -122 2 -24 13 -53 23 -65 23 -25 74
-48 108 -48 32 0 93 29 100 47 8 19 -40 41 -56 25 -23 -23 -108 -8 -108 18 0
5 42 11 93 12 l92 3 -2 40 c-4 58 -56 105 -115 105 -24 -1 -57 -7 -75 -15z
m115 -63 c12 -15 8 -17 -44 -20 -67 -4 -77 3 -45 29 28 23 68 19 89 -9z"/>
<path d="M2713 2140 c-102 -62 -37 -244 82 -225 21 3 45 11 52 17 9 7 13 7 13
-1 0 -6 14 -11 30 -11 l30 0 0 120 0 120 -30 0 c-16 0 -30 -5 -30 -10 0 -7 -6
-7 -19 0 -31 16 -93 12 -128 -10z m135 -57 c17 -23 15 -64 -4 -91 -18 -27 -69
-30 -96 -5 -25 22 -24 77 3 104 24 24 75 20 97 -8z"/>
<path d="M3310 2040 l0 -120 30 0 30 0 0 120 0 120 -30 0 -30 0 0 -120z"/>
<path d="M3440 2040 l0 -120 29 0 28 0 5 79 c5 86 17 111 54 111 33 0 44 -28
44 -114 l0 -76 35 0 35 0 0 83 c0 87 8 107 45 107 37 0 45 -20 45 -107 l0 -83
36 0 36 0 -4 96 c-4 91 -6 98 -32 120 -32 28 -83 31 -125 9 -26 -13 -30 -13
-41 0 -15 18 -91 20 -109 3 -11 -10 -14 -10 -18 0 -3 6 -18 12 -34 12 l-29 0
0 -120z"/>
<path d="M3943 2140 c-41 -25 -53 -48 -53 -105 0 -40 5 -52 33 -80 19 -19 46
-37 60 -41 40 -9 93 4 124 31 l28 23 -28 13 c-21 9 -30 10 -39 1 -23 -23 -108
-8 -108 18 0 5 42 11 93 12 l92 3 -3 35 c-2 19 -8 43 -14 53 -15 29 -70 57
-113 57 -22 0 -54 -9 -72 -20z m96 -41 c52 -18 39 -39 -24 -39 -30 0 -55 4
-55 9 0 8 38 41 46 41 0 0 15 -5 33 -11z"/>
<path d="M4454 2150 c-11 -4 -33 -22 -47 -40 -66 -78 1 -200 111 -200 33 0 95
38 100 62 4 23 -46 33 -67 13 -52 -46 -127 12 -101 79 16 44 70 54 110 20 12
-10 21 -10 44 0 l29 12 -37 32 c-29 26 -45 32 -79 31 -23 0 -51 -4 -63 -9z"/>
<path d="M5023 2150 c-32 -13 -63 -68 -63 -110 0 -47 18 -80 60 -108 28 -19
43 -22 75 -17 21 3 45 11 52 17 9 7 13 7 13 -1 0 -6 14 -11 30 -11 l30 0 0
120 0 120 -29 0 c-16 0 -31 -6 -34 -12 -4 -10 -7 -10 -18 0 -15 14 -83 15
-116 2z m111 -61 c49 -39 22 -119 -41 -119 -39 0 -63 27 -63 71 0 28 6 42 22
53 30 21 50 20 82 -5z"/>
<path d="M1893 2040 c0 -30 2 -43 4 -27 2 15 2 39 0 55 -2 15 -4 2 -4 -28z"/>
<path d="M4192 2043 c3 -27 5 -28 71 -31 l67 -3 0 31 0 30 -71 0 -70 0 3 -27z"/>
<path d="M1862 2035 c0 -16 2 -22 5 -12 2 9 2 23 0 30 -3 6 -5 -1 -5 -18z"/>
<path d="M1419 1980 c-3 -17 -13 -27 -36 -34 -25 -7 -33 -14 -33 -32 l0 -24
310 0 c297 0 310 1 310 19 0 13 -13 24 -42 36 -35 14 -78 16 -269 15 l-228 -1
-3 23 c-4 23 -4 23 -9 -2z m506 -44 c75 -32 41 -36 -265 -36 -252 0 -300 2
-300 14 0 28 57 34 293 35 186 1 245 -2 272 -13z"/>
<path d="M1643 1913 c9 -2 25 -2 35 0 9 3 1 5 -18 5 -19 0 -27 -2 -17 -5z"/>
</g>
</svg>
